<svg width="232" height="37" viewBox="0 0 232 37" fill="none" xmlns="http://www.w3.org/2000/svg">
<path d="M164.998 11.589C163.159 11.589 161.395 12.3198 160.094 13.6205C158.793 14.9213 158.062 16.6855 158.062 18.525C158.062 20.3645 158.793 22.1287 160.094 23.4295C161.395 24.7302 163.159 25.461 164.998 25.461C166.838 25.461 168.602 24.7302 169.903 23.4295C171.204 22.1287 171.934 20.3645 171.934 18.525C171.934 16.6855 171.204 14.9213 169.903 13.6205C168.602 12.3198 166.838 11.589 164.998 11.589ZM164.998 23.0295C163.803 23.0295 162.657 22.5548 161.812 21.7097C160.967 20.8647 160.492 19.7186 160.492 18.5235C160.492 17.3284 160.967 16.1823 161.812 15.3373C162.657 14.4922 163.803 14.0175 164.998 14.0175C166.193 14.0175 167.34 14.4922 168.185 15.3373C169.03 16.1823 169.504 17.3284 169.504 18.5235C169.504 19.7186 169.03 20.8647 168.185 21.7097C167.34 22.5548 166.193 23.0295 164.998 23.0295Z" fill="black"/>
<path d="M172.209 12.951C173.102 12.951 173.826 12.227 173.826 11.334C173.826 10.441 173.102 9.71701 172.209 9.71701C171.316 9.71701 170.592 10.441 170.592 11.334C170.592 12.227 171.316 12.951 172.209 12.951Z" fill="black"/>
<path d="M177.799 9.69001C177.452 8.79328 176.922 7.97893 176.241 7.29909C175.561 6.61926 174.747 6.08891 173.85 5.74201C172.8 5.34804 171.692 5.13502 170.571 5.11201C169.126 5.04901 168.669 5.03101 165.006 5.03101C161.343 5.03101 160.873 5.03101 159.441 5.11201C158.321 5.13384 157.213 5.34691 156.165 5.74201C155.268 6.08851 154.453 6.61871 153.773 7.2986C153.093 7.97849 152.562 8.79304 152.215 9.69001C151.821 10.7394 151.609 11.8483 151.587 12.969C151.522 14.412 151.503 14.8695 151.503 18.534C151.503 22.197 151.503 22.6635 151.587 24.099C151.609 25.221 151.821 26.328 152.215 27.3795C152.563 28.2761 153.094 29.0904 153.775 29.7702C154.455 30.45 155.27 30.9804 156.166 31.3275C157.213 31.7373 158.321 31.9656 159.444 32.0025C160.888 32.0655 161.346 32.085 165.009 32.085C168.672 32.085 169.141 32.085 170.574 32.0025C171.695 31.9797 172.803 31.7672 173.853 31.374C174.75 31.0263 175.564 30.4955 176.244 29.8155C176.924 29.1354 177.455 28.3211 177.802 27.4245C178.197 26.3745 178.408 25.2675 178.431 24.1455C178.495 22.7025 178.515 22.245 178.515 18.5805C178.515 14.916 178.515 14.451 178.431 13.0155C178.413 11.8789 178.2 10.7539 177.799 9.69001ZM175.972 23.988C175.963 24.8525 175.805 25.7089 175.506 26.52C175.281 27.1033 174.936 27.633 174.494 28.075C174.051 28.517 173.521 28.8616 172.938 29.0865C172.136 29.3842 171.288 29.542 170.433 29.553C169.008 29.619 168.606 29.6355 164.952 29.6355C161.295 29.6355 160.921 29.6355 159.469 29.553C158.614 29.5425 157.767 29.3847 156.966 29.0865C156.38 28.863 155.848 28.519 155.404 28.0769C154.96 27.6348 154.614 27.1044 154.387 26.52C154.093 25.7176 153.935 24.8713 153.921 24.0165C153.856 22.5915 153.841 22.1895 153.841 18.5355C153.841 14.88 153.841 14.5065 153.921 13.053C153.931 12.189 154.088 11.3331 154.387 10.5225C154.845 9.33901 155.782 8.40751 156.966 7.95451C157.768 7.65772 158.614 7.49995 159.469 7.48801C160.896 7.42351 161.296 7.40551 164.952 7.40551C168.607 7.40551 168.982 7.40551 170.433 7.48801C171.289 7.4983 172.136 7.65611 172.938 7.95451C173.521 8.17992 174.051 8.52481 174.493 8.96705C174.936 9.40929 175.281 9.93911 175.506 10.5225C175.801 11.3249 175.958 12.1712 175.972 13.026C176.037 14.4525 176.053 14.853 176.053 18.5085C176.053 22.1625 176.053 22.5555 175.989 23.9895H175.972V23.988Z" fill="black"/>
<path d="M207.705 9.11987C208.588 9.11987 209.383 9.19637 210.112 9.35237C210.837 9.50687 211.455 9.76187 211.976 10.1144C212.491 10.4669 212.893 10.9349 213.182 11.5229C213.463 12.1034 213.602 12.8294 213.602 13.6874C213.602 14.6174 213.392 15.3944 212.971 16.0139C212.547 16.6349 211.921 17.1434 211.087 17.5364C212.222 17.8649 213.064 18.4394 213.622 19.2554C214.183 20.0789 214.458 21.0644 214.458 22.2194C214.458 23.1569 214.279 23.9624 213.92 24.6389C213.575 25.3053 213.074 25.8785 212.459 26.3099C211.823 26.753 211.112 27.0782 210.361 27.2699C209.573 27.4767 208.762 27.5805 207.948 27.5789H199V9.11987H207.705ZM207.178 16.5779C207.898 16.5779 208.495 16.4069 208.966 16.0604C209.434 15.7184 209.661 15.1544 209.661 14.3819C209.661 13.9529 209.584 13.5989 209.434 13.3214C209.288 13.0544 209.072 12.8324 208.808 12.6794C208.533 12.5161 208.229 12.4066 207.913 12.3569C207.568 12.2926 207.218 12.2619 206.867 12.2654H203.065V16.5779H207.178ZM207.405 24.4364C207.805 24.4364 208.186 24.4019 208.545 24.3209C208.906 24.2429 209.227 24.1169 209.5 23.9294C209.773 23.7494 209.998 23.5049 210.16 23.1929C210.323 22.8839 210.403 22.4804 210.403 21.9959C210.403 21.0449 210.135 20.3684 209.604 19.9589C209.071 19.5539 208.357 19.3529 207.483 19.3529H203.065V24.4379H207.405V24.4364ZM220.252 24.3749C220.802 24.9119 221.596 25.1819 222.628 25.1819C223.368 25.1819 224.007 24.9944 224.545 24.6224C225.076 24.2489 225.4 23.8499 225.525 23.4374H228.757C228.238 25.0454 227.451 26.1944 226.374 26.8859C225.31 27.5804 224.016 27.9254 222.504 27.9254C221.451 27.9254 220.503 27.7559 219.653 27.4199C218.839 27.1025 218.102 26.6123 217.495 25.9829C216.898 25.3388 216.436 24.5813 216.138 23.7554C215.809 22.842 215.647 21.8774 215.657 20.9069C215.657 19.9079 215.824 18.9734 216.151 18.1109C216.461 17.2771 216.938 16.5152 217.552 15.8714C218.16 15.2414 218.88 14.7449 219.718 14.3804C220.6 14.0095 221.549 13.8247 222.505 13.8374C223.636 13.8374 224.625 14.0564 225.473 14.4974C226.297 14.9183 227.011 15.5254 227.558 16.2704C228.103 17.0099 228.492 17.8574 228.733 18.8069C228.975 19.7549 229.059 20.7449 228.99 21.7814H219.343C219.344 22.8374 219.7 23.8379 220.252 24.3749ZM224.47 17.3534C224.033 16.8704 223.295 16.6094 222.392 16.6094C221.806 16.6094 221.322 16.7069 220.931 16.9079C220.575 17.088 220.259 17.3385 220.001 17.6444C219.776 17.9221 219.608 18.2425 219.51 18.5864C219.423 18.8731 219.367 19.1683 219.343 19.4669H225.316C225.229 18.5309 224.908 17.8394 224.47 17.3534ZM218.593 10.3589H226.076V12.1814H218.593V10.3589Z" fill="black"/>
<path d="M128.99 10.9934C127.681 8.72503 125.797 6.84175 123.528 5.53344C121.229 4.19394 118.719 3.52344 116 3.52344C113.281 3.52344 110.771 4.19394 108.47 5.53344C106.17 6.87294 104.349 8.69394 103.01 10.9934C101.67 13.2929 101 15.8039 101 18.5234C101 21.2429 101.669 23.7539 103.01 26.0534C104.318 28.3222 106.202 30.2056 108.471 31.5134C110.771 32.8529 113.281 33.5234 116 33.5234C118.719 33.5234 121.229 32.8529 123.53 31.5134C125.799 30.2051 127.683 28.3218 128.991 26.0534C130.331 23.7539 131 21.2429 131 18.5234C131 15.8039 130.331 13.2929 128.99 10.9934ZM116 6.01344C119 6.01344 121.658 6.97344 123.98 8.89194C122.6 10.6529 120.551 12.1019 117.83 13.2419C116.327 10.5224 114.698 8.25144 112.938 6.43194C113.936 6.15621 114.965 6.01546 116 6.01344ZM106.265 10.7234C107.362 9.33058 108.75 8.19409 110.331 7.39344C112.149 9.19494 113.819 11.4434 115.341 14.1434C112.341 15.0434 109.17 15.4934 105.83 15.4934C104.97 15.4934 104.321 15.4739 103.88 15.4334C104.34 13.715 105.152 12.111 106.265 10.7234ZM103.49 18.5234C103.49 18.4424 103.495 18.3434 103.505 18.2234C103.516 18.1034 103.52 18.0044 103.52 17.9234C103.901 17.9444 104.482 17.9534 105.262 17.9534C109.26 17.9534 112.98 17.4029 116.42 16.3034C116.7 16.8629 116.991 17.4929 117.29 18.1934C115.31 18.6329 113.279 19.7024 111.198 21.4034C109.118 23.1044 107.6 24.8939 106.64 26.7734C104.54 24.3929 103.49 21.6434 103.49 18.5234ZM116 31.0334C113.159 31.0334 110.609 30.1529 108.349 28.3949C109.25 26.6144 110.635 24.9119 112.505 23.2934C114.374 21.6734 116.229 20.6639 118.07 20.2634C119.231 23.4719 120.016 26.8042 120.41 30.1934C119.004 30.7427 117.509 31.0275 116 31.0334ZM126.62 25.0934C125.638 26.6752 124.316 28.0183 122.75 29.0249C122.39 25.9049 121.7 22.8644 120.681 19.9034C122.08 19.8044 123.329 19.7534 124.431 19.7534C125.63 19.7534 126.961 19.8044 128.42 19.9034C128.224 21.7482 127.608 23.5236 126.62 25.0934ZM124.76 17.5934C123.02 17.5934 121.41 17.6639 119.93 17.8034C119.616 16.9826 119.276 16.1722 118.91 15.3734C122.009 14.0144 124.208 12.3644 125.509 10.4234C127.309 12.5444 128.289 14.9639 128.448 17.6834C127.23 17.6234 126 17.5934 124.76 17.5934Z" fill="black"/>
<path d="M79 5.02344H55C54.6022 5.02344 54.2206 5.18147 53.9393 5.46278C53.658 5.74408 53.5 6.12561 53.5 6.52344V30.5234C53.5 30.9213 53.658 31.3028 53.9393 31.5841C54.2206 31.8654 54.6022 32.0234 55 32.0234H67.9225V21.5834H64.4155V17.4959H67.9225V14.4959C67.9225 11.0084 70.0525 9.10794 73.1725 9.10794C74.221 9.10494 75.271 9.15894 76.315 9.26844V12.8984H74.1625C72.4705 12.8984 72.1405 13.7054 72.1405 14.8859V17.4884H76.186L75.661 21.5759H72.139V32.0234H79C79.3978 32.0234 79.7794 31.8654 80.0607 31.5841C80.342 31.3028 80.5 30.9213 80.5 30.5234V6.52344C80.5 6.12561 80.342 5.74408 80.0607 5.46278C79.7794 5.18147 79.3978 5.02344 79 5.02344Z" fill="black"/>
<path d="M14.3895 16.9799C13.5765 16.9799 12.936 17.6924 12.936 18.5624C12.936 19.4294 13.5915 20.1449 14.3895 20.1449C15.201 20.1449 15.8415 19.4294 15.8415 18.5624C15.858 17.6909 15.201 16.9799 14.3895 16.9799ZM19.5915 16.9799C18.7785 16.9799 18.138 17.6924 18.138 18.5624C18.138 19.4294 18.7935 20.1449 19.5915 20.1449C20.403 20.1449 21.0435 19.4294 21.0435 18.5624C21.042 17.6909 20.403 16.9799 19.5915 16.9799Z" fill="black"/>
<path d="M26.517 5.02344H7.42051C7.036 5.02442 6.65545 5.10113 6.30058 5.24919C5.94572 5.39724 5.62349 5.61374 5.35229 5.88633C5.0811 6.15892 4.86625 6.48225 4.72002 6.83787C4.57378 7.19349 4.49902 7.57443 4.50001 7.95894V27.2249C4.50001 28.8494 5.81101 30.1604 7.42051 30.1604H23.58L22.8225 27.5219L24.648 29.2184L26.3715 30.8144L29.4375 33.5234V7.95894C29.4385 7.57443 29.3637 7.19349 29.2175 6.83787C29.0713 6.48225 28.8564 6.15892 28.5852 5.88633C28.314 5.61374 27.9918 5.39724 27.6369 5.24919C27.2821 5.10113 26.9015 5.02442 26.517 5.02344ZM21.015 23.6339C21.015 23.6339 20.502 23.0219 20.076 22.4774C21.942 21.9494 22.6545 20.7824 22.6545 20.7824C22.0695 21.1664 21.5145 21.4394 21.015 21.6254C19.1965 22.3865 17.194 22.5942 15.258 22.2224C14.5427 22.0819 13.8417 21.8761 13.164 21.6074C12.8066 21.4717 12.4592 21.3108 12.1245 21.1259C12.081 21.0944 12.039 21.0824 11.997 21.0539C11.9745 21.0433 11.9546 21.0279 11.9385 21.0089C11.682 20.8679 11.5395 20.7689 11.5395 20.7689C11.5395 20.7689 12.2235 21.9089 14.034 22.4504C13.6065 22.9904 13.0785 23.6339 13.0785 23.6339C9.93001 23.5334 8.73451 21.4679 8.73451 21.4679C8.73451 16.8794 10.7865 13.1609 10.7865 13.1609C12.8385 11.6204 14.79 11.6639 14.79 11.6639L14.9325 11.8349C12.3675 12.5774 11.184 13.7024 11.184 13.7024C11.184 13.7024 11.499 13.5314 12.0255 13.2899C13.5495 12.6209 14.76 12.4349 15.2595 12.3914C15.345 12.3779 15.417 12.3629 15.5025 12.3629C17.9733 12.03 20.4857 12.4995 22.6695 13.7024C22.6695 13.7024 21.543 12.6344 19.1205 11.8934L19.32 11.6654C19.32 11.6654 21.273 11.6219 23.3235 13.1624C23.3235 13.1624 25.3755 16.8809 25.3755 21.4694C25.3755 21.4694 24.165 23.5334 21.015 23.6339Z" fill="black"/>
</svg>
